<?xml version="1.0" standalone="no"?>
<!DOCTYPE svg PUBLIC "-//W3C//DTD SVG 20010904//EN"
 "http://www.w3.org/TR/2001/REC-SVG-20010904/DTD/svg10.dtd">
<svg version="1.0" xmlns="http://www.w3.org/2000/svg"
 width="1080.000000pt" height="1080.000000pt" viewBox="0 0 1080.000000 1080.000000"
 preserveAspectRatio="xMidYMid meet">
<metadata>
Created by potrace 1.14, written by Peter Selinger 2001-2017
</metadata>
<g transform="translate(0.000000,1080.000000) scale(0.100000,-0.100000)"
fill="#000000" stroke="none">
<path d="M2264 9159 c-3 -5 -10 -7 -15 -3 -6 3 -18 0 -27 -8 -9 -8 -33 -14
-52 -13 -20 0 -41 -6 -48 -15 -12 -13 -13 -12 -8 5 6 20 6 20 -9 1 -11 -14
-15 -16 -15 -5 -1 10 -4 9 -11 -4 -8 -14 -14 -16 -25 -6 -11 9 -14 9 -14 0 0
-7 -4 -10 -9 -6 -5 3 -12 1 -15 -4 -3 -5 -16 -7 -28 -3 -15 4 -19 2 -13 -7 6
-10 3 -11 -14 -2 -18 10 -20 9 -14 -6 5 -15 3 -16 -8 -5 -17 15 -33 16 -23 0
5 -8 2 -9 -9 -5 -10 4 -16 2 -14 -5 1 -6 -4 -13 -12 -16 -9 -3 -11 0 -7 9 4 8
-1 4 -12 -8 -22 -25 -38 -31 -26 -10 6 8 3 8 -9 -1 -9 -8 -21 -11 -26 -7 -7 4
-8 -1 -4 -11 4 -11 3 -15 -4 -11 -6 4 -18 0 -26 -8 -18 -18 -31 -20 -21 -3 4
7 3 8 -5 4 -6 -4 -9 -10 -7 -14 5 -9 -20 -32 -28 -25 -3 4 -6 1 -6 -6 0 -7 -5
-9 -12 -5 -7 5 -9 2 -5 -9 3 -8 0 -18 -8 -21 -10 -3 -12 0 -8 12 4 13 2 12
-10 -3 -8 -11 -13 -24 -9 -29 3 -5 -2 -7 -11 -3 -10 3 -17 2 -17 -3 0 -6 -6
-9 -12 -8 -7 2 -12 -5 -12 -14 1 -10 -1 -17 -5 -16 -27 3 -40 -4 -34 -19 4
-11 3 -14 -5 -9 -8 4 -19 -4 -30 -23 -9 -17 -21 -31 -25 -31 -5 0 -5 5 -1 12
4 7 3 8 -5 4 -6 -4 -9 -11 -6 -16 3 -5 -1 -15 -9 -23 -8 -8 -12 -18 -8 -22 4
-5 -1 -5 -10 -2 -16 6 -23 -3 -19 -25 0 -5 -4 -8 -9 -8 -5 0 -9 -6 -7 -12 1
-7 -3 -12 -10 -11 -6 2 -15 -6 -18 -17 -4 -11 -12 -20 -18 -20 -7 0 -6 -4 3
-10 12 -8 12 -10 -4 -16 -14 -5 -15 -9 -4 -16 9 -7 7 -9 -8 -5 -13 3 -21 -1
-21 -9 0 -7 3 -11 7 -9 4 2 7 -2 7 -9 0 -8 -6 -12 -13 -9 -6 2 -15 -1 -20 -8
-4 -8 -3 -10 4 -5 7 4 12 2 12 -3 0 -6 -4 -11 -9 -11 -6 0 -8 -9 -6 -21 3 -17
1 -19 -10 -9 -11 9 -12 7 -8 -11 5 -16 3 -20 -6 -14 -10 6 -11 3 -1 -15 7 -12
8 -20 3 -17 -4 3 -13 -6 -20 -19 -6 -13 -7 -22 -2 -18 5 3 9 0 9 -5 0 -6 -5
-11 -11 -11 -5 0 -7 -4 -4 -10 3 -5 2 -10 -4 -10 -6 0 -7 -7 -4 -17 4 -11 3
-14 -5 -9 -7 4 -12 2 -12 -3 0 -6 4 -11 9 -11 14 0 7 -40 -9 -50 -13 -9 -13
-10 0 -10 13 0 13 -1 0 -10 -13 -9 -13 -10 0 -10 12 -1 11 -3 -3 -14 -12 -9
-14 -15 -6 -18 9 -3 9 -9 -1 -27 -11 -22 -11 -23 6 -17 18 6 18 5 1 -8 -14
-10 -15 -15 -5 -19 11 -4 10 -7 -1 -15 -10 -7 -10 -11 -1 -17 6 -4 9 -14 6
-22 -3 -8 -1 -24 5 -35 9 -16 8 -19 -3 -12 -8 5 -7 -1 4 -18 11 -17 14 -29 8
-33 -6 -3 -10 -11 -10 -16 0 -6 4 -7 10 -4 6 4 10 -5 10 -20 0 -14 4 -24 8
-21 5 3 9 -1 9 -9 0 -8 -5 -11 -10 -8 -6 3 -2 -6 9 -20 10 -15 24 -27 31 -27
6 0 13 -3 16 -7 2 -5 2 -3 1 4 -2 7 1 15 6 18 6 4 10 -4 10 -17 0 -18 2 -20
10 -8 7 11 10 12 10 2 0 -19 25 -42 45 -42 10 0 13 -5 9 -12 -5 -7 -3 -8 5 -4
7 5 21 0 31 -9 10 -9 23 -14 29 -11 5 4 13 1 17 -5 5 -8 3 -9 -6 -4 -8 5 -11
4 -6 -3 4 -6 13 -9 21 -5 8 3 15 1 15 -4 0 -5 7 -10 15 -11 8 -1 22 -3 30 -4
8 -1 12 -5 9 -10 -3 -4 4 -8 15 -8 10 0 22 -6 24 -12 4 -10 6 -10 6 0 1 6 6
12 12 12 5 0 7 -4 4 -10 -6 -9 10 -14 43 -13 6 1 12 -3 12 -9 0 -5 5 -6 11 -3
6 4 17 -1 25 -11 12 -17 13 -17 8 -1 -8 21 0 22 20 1 9 -9 16 -11 16 -4 0 6 5
8 10 5 6 -4 8 -11 5 -16 -3 -5 0 -6 8 -3 8 3 18 0 22 -6 5 -8 11 -8 21 1 11 9
14 8 14 -2 0 -10 3 -10 11 -2 13 13 42 6 34 -7 -3 -5 8 -5 24 0 26 7 29 6 26
-11 -2 -10 0 -19 6 -19 5 0 9 10 9 23 0 17 2 19 9 7 6 -8 7 -19 4 -25 -3 -5 0
-4 7 2 11 10 18 9 34 -5 11 -9 16 -12 13 -6 -4 7 0 14 8 17 9 4 12 1 9 -7 -4
-10 3 -13 25 -11 18 1 31 -2 31 -9 0 -6 5 -4 10 4 8 12 10 12 11 -5 0 -11 3
-14 6 -7 6 16 28 15 47 -3 14 -14 68 -27 109 -26 14 0 16 -3 8 -12 -8 -10 -2
-12 24 -9 22 3 35 0 35 -7 0 -7 4 -10 9 -6 5 3 12 1 16 -5 4 -6 11 -8 16 -5 5
4 9 2 9 -3 0 -6 7 -13 16 -16 12 -5 14 -3 8 7 -5 7 -2 6 6 -3 9 -9 23 -16 33
-14 9 1 20 -3 24 -8 4 -7 1 -8 -7 -3 -8 5 -11 4 -6 -3 3 -6 15 -9 25 -7 12 2
21 -3 24 -15 3 -13 11 -17 26 -13 14 4 28 -2 42 -18 11 -13 18 -18 14 -11 -3
6 -2 12 3 12 5 0 12 -10 15 -22 5 -18 8 -19 22 -8 14 11 16 11 13 -1 -2 -8 3
-13 10 -11 6 1 12 -3 12 -8 0 -6 8 -10 17 -8 10 2 18 -3 18 -12 0 -8 9 -14 18
-14 10 1 16 0 13 -3 -7 -7 20 -33 34 -33 15 0 40 -25 40 -40 0 -7 8 -10 19 -7
14 3 18 1 14 -9 -3 -8 2 -17 11 -20 9 -3 13 -11 9 -17 -3 -5 -2 -7 3 -4 6 3
16 2 24 -4 13 -7 13 -9 0 -9 -8 -1 -5 -5 8 -11 13 -5 20 -13 17 -19 -3 -5 0
-10 9 -10 8 0 13 -8 12 -17 -3 -18 -12 -21 -24 -7 -4 4 -1 4 7 -1 10 -5 12 -4
7 4 -4 6 -13 8 -19 4 -17 -10 -77 -10 -77 0 0 5 -7 4 -15 -3 -12 -10 -15 -10
-15 0 0 8 -3 10 -7 7 -3 -4 -12 -2 -20 5 -11 8 -12 7 -7 -5 4 -12 1 -14 -15
-10 -11 3 -18 9 -15 14 3 5 -6 5 -19 0 -14 -6 -27 -7 -31 -4 -10 10 -116 8
-116 -2 0 -5 -5 -3 -10 5 -5 8 -10 10 -10 4 0 -7 -7 -15 -16 -18 -9 -4 -13 -2
-8 5 4 8 -1 9 -17 3 -13 -4 -29 -7 -36 -7 -7 0 -10 -4 -8 -8 3 -4 -2 -10 -11
-13 -24 -9 -31 -7 -14 4 9 6 10 10 3 10 -7 0 -17 -8 -22 -17 -8 -14 -10 -15
-11 -3 0 13 -2 13 -9 1 -5 -8 -16 -11 -26 -7 -14 5 -16 4 -7 -7 10 -11 6 -13
-18 -12 -20 1 -27 -2 -21 -9 6 -8 -1 -11 -22 -12 -16 -1 -35 -8 -41 -16 -6 -8
-23 -23 -38 -32 -15 -10 -25 -22 -22 -27 3 -5 -2 -6 -11 -3 -10 4 -15 2 -13
-7 2 -8 -3 -13 -10 -11 -7 1 -17 -9 -22 -22 -5 -13 -15 -28 -22 -32 -9 -5 -8
-2 2 12 14 17 14 18 -2 6 -9 -7 -19 -24 -22 -37 -4 -14 -12 -24 -19 -22 -6 1
-12 -5 -12 -13 0 -8 -6 -20 -14 -26 -9 -7 -11 -16 -6 -25 8 -12 6 -12 -8 -1
-14 12 -16 11 -12 -7 2 -12 0 -19 -6 -16 -5 4 -12 -2 -16 -12 -9 -24 -29 -44
-36 -36 -4 3 -5 -4 -2 -15 2 -12 -3 -23 -12 -26 -9 -4 -13 -13 -9 -22 4 -11
-1 -18 -14 -21 -13 -4 -23 -17 -27 -35 -3 -16 -12 -32 -19 -35 -8 -3 -14 -11
-14 -19 0 -8 -4 -14 -9 -14 -5 0 -12 -7 -15 -16 -5 -12 -3 -14 7 -8 7 5 3 0
-10 -12 -21 -18 -33 -45 -35 -81 -1 -6 -7 -9 -14 -6 -11 4 -41 -61 -36 -80 1
-4 -5 -10 -13 -13 -8 -4 -15 -13 -15 -21 0 -9 -5 -11 -12 -7 -9 5 -9 2 1 -9 9
-12 10 -17 2 -17 -7 0 -9 -5 -6 -10 4 -6 3 -10 -2 -9 -4 1 -15 1 -23 0 -13 -1
-13 -2 0 -11 12 -8 12 -10 -2 -15 -10 -4 -14 -13 -11 -22 4 -10 2 -14 -4 -10
-9 6 -21 -8 -20 -23 1 -15 -26 -50 -38 -50 -8 0 -12 -8 -10 -19 3 -15 -1 -18
-12 -14 -11 4 -14 2 -9 -5 4 -8 0 -12 -11 -12 -15 0 -16 -2 -3 -10 13 -8 13
-10 -2 -10 -10 0 -25 -11 -34 -26 -10 -14 -23 -23 -31 -20 -8 3 -12 2 -10 -2
3 -4 -5 -16 -16 -27 -11 -12 -17 -14 -13 -5 5 9 2 8 -7 -2 -8 -10 -17 -15 -20
-11 -4 3 -7 1 -7 -6 0 -7 -7 -11 -15 -8 -8 4 -17 1 -21 -5 -5 -7 -2 -8 6 -3 9
5 11 4 6 -3 -4 -7 -16 -12 -26 -12 -10 0 -22 -5 -26 -12 -5 -7 -3 -8 6 -3 9 5
11 4 6 -4 -6 -9 -11 -9 -22 0 -11 9 -14 9 -14 -1 0 -7 -8 -10 -20 -7 -11 3
-23 0 -27 -5 -3 -7 -1 -8 5 -4 8 5 10 2 6 -9 -5 -12 -9 -13 -20 -4 -10 8 -14
8 -14 0 0 -6 -9 -11 -19 -11 -11 0 -22 -6 -24 -12 -4 -10 -8 -9 -16 2 -6 8
-11 10 -11 4 0 -7 -9 -14 -21 -17 -13 -4 -18 -10 -14 -17 6 -9 2 -9 -15 0 -12
7 -20 8 -16 2 3 -5 -1 -13 -10 -16 -10 -4 -13 -2 -8 7 5 8 2 8 -9 -2 -9 -7
-24 -10 -33 -7 -14 6 -15 4 -4 -9 7 -9 9 -15 4 -14 -25 4 -45 -2 -38 -13 5 -8
2 -9 -9 -5 -10 4 -17 2 -17 -4 0 -6 -6 -9 -13 -6 -7 3 -21 -1 -32 -9 -10 -8
-15 -14 -9 -14 5 -1 -2 -7 -16 -14 -14 -8 -28 -12 -32 -10 -5 3 -8 -2 -8 -10
0 -9 -7 -16 -15 -16 -8 0 -34 -19 -57 -42 -22 -22 -37 -35 -33 -27 8 12 6 12
-8 0 -9 -7 -17 -19 -17 -25 0 -6 -14 -17 -31 -23 -17 -7 -28 -17 -24 -22 3 -6
1 -11 -5 -11 -17 0 -40 -26 -32 -35 4 -5 0 -6 -9 -3 -18 7 -43 -27 -33 -45 4
-7 3 -9 -1 -4 -5 4 -17 -5 -27 -20 -10 -16 -18 -22 -18 -15 0 6 -4 12 -10 12
-5 0 -7 -7 -4 -15 4 -8 1 -15 -6 -15 -6 0 -8 -4 -5 -10 3 -5 1 -10 -5 -10 -6
0 -9 -4 -5 -9 3 -6 -4 -15 -15 -21 -11 -6 -19 -15 -17 -20 1 -5 -7 -16 -18
-25 -11 -9 -13 -14 -5 -10 10 4 9 2 -2 -8 -10 -8 -15 -17 -11 -20 3 -4 0 -7
-8 -7 -12 0 -11 -2 1 -10 13 -9 11 -14 -10 -31 -17 -15 -24 -29 -22 -46 3 -18
0 -23 -9 -18 -7 5 -10 4 -5 -3 3 -6 2 -14 -4 -17 -8 -5 -7 -12 2 -23 11 -14
10 -15 -6 -9 -15 6 -17 5 -8 -6 9 -10 8 -17 -1 -26 -9 -9 -9 -14 3 -21 13 -8
8 -14 -11 -12 -3 1 -6 -5 -6 -13 0 -8 5 -11 11 -8 6 3 5 0 -1 -8 -17 -17 -17
-32 -1 -23 9 5 9 2 -1 -9 -10 -13 -11 -20 -2 -30 6 -8 8 -17 4 -20 -3 -4 0
-15 8 -24 11 -14 8 -14 -10 2 l-24 20 10 -20 c6 -11 9 -28 8 -37 -2 -10 2 -16
7 -15 6 1 12 -20 14 -47 1 -27 7 -52 11 -55 5 -3 10 -22 12 -41 4 -43 9 -52
23 -44 7 5 9 1 5 -9 -3 -10 -2 -17 3 -17 6 0 9 -3 9 -7 -4 -25 3 -41 21 -46
11 -3 20 -12 20 -21 0 -9 7 -16 16 -16 10 0 14 -5 10 -16 -3 -8 -2 -13 3 -10
5 3 14 -1 21 -9 7 -8 16 -13 20 -10 5 3 6 -5 4 -17 -2 -13 -2 -17 2 -10 7 16
25 16 21 0 -1 -7 4 -12 10 -11 7 2 13 -4 13 -13 0 -8 4 -12 10 -9 5 3 10 1 10
-5 0 -6 5 -8 10 -5 6 3 10 1 10 -5 0 -6 4 -8 10 -5 5 3 10 1 10 -5 0 -7 6 -10
14 -7 17 7 39 -16 28 -28 -4 -5 1 -5 11 -2 9 4 17 2 17 -5 0 -7 5 -6 15 2 12
10 15 9 15 -5 0 -10 3 -16 6 -12 4 3 13 0 21 -8 8 -8 19 -15 26 -15 6 0 2 7
-9 15 -18 14 -17 14 8 4 16 -7 28 -16 28 -22 0 -5 12 -6 26 -3 16 4 23 3 19
-3 -4 -7 1 -8 11 -4 13 5 15 3 9 -8 -7 -11 -6 -12 6 -3 15 11 25 11 53 -1 12
-5 21 -3 27 6 7 12 9 12 10 -1 1 -8 1 -18 1 -21 -1 -3 5 -6 13 -6 7 0 11 6 8
13 -2 6 1 15 8 20 8 4 10 3 5 -5 -13 -20 61 -35 97 -18 9 4 17 4 17 -1 0 -4 9
-8 19 -8 11 0 18 3 15 7 -2 4 3 10 12 13 24 9 31 7 14 -4 -13 -8 -13 -10 2
-10 9 0 24 7 32 16 9 8 16 11 16 6 0 -17 29 -22 43 -7 8 7 32 15 53 17 22 2
45 7 52 12 6 4 17 4 22 1 6 -3 10 1 10 10 0 9 4 13 10 10 5 -3 10 -1 10 4 0 6
5 11 11 11 5 0 7 -4 4 -10 -10 -17 7 -11 22 8 8 9 12 11 8 5 -4 -9 -1 -11 9
-7 9 3 13 11 9 17 -3 5 -1 7 4 4 12 -8 62 15 73 33 4 6 16 12 27 13 14 1 19 6
15 17 -3 8 -2 12 3 8 4 -4 14 0 22 10 12 16 13 16 7 -3 -4 -17 -3 -16 8 3 8
12 18 19 23 15 4 -4 5 1 1 11 -6 17 -4 17 11 5 10 -7 15 -10 11 -5 -7 8 50 71
64 71 10 0 48 52 48 65 0 6 5 8 10 5 6 -3 10 1 10 10 0 8 7 18 15 21 12 5 13
9 4 20 -10 12 -9 13 5 8 10 -4 16 -1 16 7 0 7 10 22 23 34 13 11 17 16 10 11
-10 -6 -12 -5 -7 7 3 9 14 19 25 22 11 4 17 10 14 15 -3 5 -1 11 5 15 6 4 8
11 5 16 -4 5 2 6 12 2 10 -3 15 -3 11 2 -4 4 1 15 10 24 12 11 13 13 2 7 -8
-5 3 7 25 27 22 20 46 36 54 37 8 0 11 6 7 17 -4 10 -4 14 0 10 4 -4 14 -1 22
6 13 10 14 9 8 -3 -4 -8 2 -4 14 10 12 14 19 19 15 13 -4 -9 -1 -11 9 -7 9 3
13 10 10 15 -3 5 2 6 10 3 9 -3 16 -1 16 5 0 6 5 11 11 11 5 0 7 -6 3 -12 -6
-10 -5 -10 8 -1 8 7 18 10 22 6 4 -4 4 0 1 8 -4 10 0 16 9 16 8 0 13 -4 10 -9
-3 -4 2 -5 10 -2 9 3 13 11 10 16 -4 6 3 5 15 -1 18 -10 21 -9 21 6 0 10 4 14
8 8 8 -12 32 -13 50 -2 6 5 12 5 12 0 0 -4 5 -1 10 7 9 13 10 13 10 0 0 -13 2
-13 9 -1 10 16 41 24 41 11 0 -13 29 -20 36 -8 4 6 3 8 -4 4 -6 -3 -14 -1 -18
6 -4 7 -4 10 1 6 4 -4 16 -3 26 3 15 8 17 6 12 -8 -6 -16 -5 -16 10 -4 9 7 28
11 42 9 14 -3 25 -2 25 1 0 13 123 2 131 -11 5 -7 9 -8 9 -2 0 5 11 10 25 10
14 0 25 -4 25 -9 0 -5 8 -3 17 4 9 8 14 9 10 3 -4 -7 0 -15 9 -18 8 -3 12 -2
9 4 -9 14 8 12 24 -3 11 -10 13 -9 7 3 -4 8 0 6 8 -4 12 -15 16 -16 16 -5 0
12 2 12 9 0 7 -11 9 -11 14 0 4 10 6 10 6 2 1 -7 12 -13 26 -13 14 0 25 -4 25
-10 0 -5 6 -10 14 -10 8 0 17 -6 19 -12 4 -10 6 -9 6 1 1 10 7 7 20 -8 11 -13
24 -20 29 -17 6 3 13 -6 16 -20 6 -21 9 -24 21 -14 12 10 15 8 15 -11 0 -19 2
-21 10 -9 8 13 10 12 10 -2 0 -16 11 -23 32 -19 5 0 7 -2 7 -7 -1 -4 -1 -15 0
-26 1 -16 3 -16 17 -6 12 11 15 11 12 -1 -2 -8 3 -13 11 -11 8 2 11 -3 8 -11
-3 -7 5 -19 16 -27 19 -11 21 -11 12 1 -5 8 -3 7 7 -3 9 -10 21 -18 27 -18 6
0 11 -7 11 -16 0 -8 4 -12 10 -9 5 3 10 2 10 -4 0 -5 9 -8 19 -6 19 4 21 -5 6
-37 -4 -10 -12 -15 -18 -11 -6 4 -8 -2 -4 -17 4 -16 1 -23 -14 -27 -10 -3 -16
-9 -13 -14 3 -5 -10 -24 -29 -42 -19 -17 -39 -42 -46 -54 -6 -13 -17 -22 -24
-20 -7 1 -11 -4 -9 -12 2 -8 -3 -11 -12 -8 -9 4 -15 3 -15 -1 3 -19 -2 -33
-10 -27 -5 3 -12 1 -16 -5 -4 -6 -12 -7 -18 -3 -7 4 -7 0 1 -10 12 -14 11 -16
-6 -12 -12 2 -23 -3 -26 -12 -4 -9 -14 -13 -26 -10 -11 3 -19 2 -18 -2 2 -18
-4 -30 -18 -35 -15 -6 -15 -4 -3 11 11 14 9 13 -12 -2 -15 -11 -25 -23 -23
-26 2 -3 -8 -5 -21 -3 -23 2 -30 -6 -26 -30 1 -5 -5 -4 -13 4 -11 8 -16 9 -16
1 0 -6 -9 -11 -21 -11 -13 0 -18 -4 -13 -12 5 -7 3 -8 -5 -4 -7 5 -18 1 -25
-9 -7 -10 -27 -19 -46 -21 -18 -2 -39 -13 -47 -23 -7 -11 -21 -18 -30 -17 -10
2 -23 -4 -30 -13 -9 -11 -12 -12 -13 -3 0 7 -5 10 -10 7 -6 -4 -8 -10 -5 -15
3 -5 -4 -7 -15 -5 -11 2 -24 -3 -28 -12 -5 -8 -20 -16 -35 -16 -14 -1 -25 -6
-24 -12 1 -5 -5 -10 -13 -11 -25 -2 -50 -16 -44 -25 3 -5 -3 -6 -12 -2 -13 5
-15 3 -9 -8 7 -11 5 -11 -10 1 -17 14 -18 13 -12 -3 4 -11 3 -16 -3 -12 -6 3
-13 0 -16 -9 -3 -8 -14 -13 -24 -11 -10 2 -21 -3 -24 -12 -4 -8 -13 -13 -21
-9 -8 3 -14 2 -12 -2 1 -4 -2 -8 -7 -9 -5 0 -13 -8 -18 -17 -5 -9 -14 -14 -19
-10 -5 3 -8 0 -7 -8 2 -7 -3 -12 -10 -10 -7 1 -15 -5 -18 -13 -3 -8 -11 -12
-17 -8 -6 4 -8 0 -4 -11 4 -9 3 -15 -2 -11 -6 3 -14 -3 -20 -12 -5 -10 -13
-18 -18 -18 -4 0 -7 -4 -5 -9 2 -5 -4 -6 -12 -3 -9 4 -15 1 -13 -6 1 -7 -4
-11 -12 -9 -9 2 -11 -3 -7 -14 5 -13 4 -15 -7 -5 -12 9 -14 7 -12 -13 3 -19
-1 -24 -16 -21 -11 2 -17 0 -14 -5 3 -5 -5 -18 -17 -29 -12 -12 -23 -29 -24
-38 -2 -9 -9 -20 -17 -25 -10 -5 -13 -16 -9 -30 4 -17 2 -20 -11 -15 -16 6
-32 -18 -18 -28 10 -6 -10 -55 -21 -55 -5 0 -8 -5 -8 -11 0 -5 6 -7 13 -3 8 6
8 3 -1 -9 -8 -9 -10 -22 -6 -28 4 -7 3 -9 -3 -6 -6 4 -14 0 -17 -9 -4 -10 -2
-13 7 -8 9 6 9 4 1 -7 -5 -8 -10 -21 -9 -29 1 -8 -2 -25 -7 -37 -4 -13 -3 -25
3 -29 8 -4 7 -9 -2 -15 -10 -6 -11 -9 -1 -9 6 0 12 -5 12 -11 0 -5 -6 -7 -12
-3 -10 6 -10 5 -1 -7 10 -12 10 -18 1 -27 -9 -9 -8 -12 6 -12 9 0 15 -4 12 -8
-3 -5 -8 -24 -11 -43 -4 -26 -3 -30 5 -19 9 12 10 10 8 -10 -2 -14 2 -24 8
-23 11 2 12 -32 1 -44 -4 -3 3 -18 15 -31 13 -14 17 -22 9 -17 -10 6 -12 4 -5
-6 5 -8 9 -17 9 -21 0 -3 4 -10 9 -15 5 -5 6 -3 2 5 -4 6 -2 12 5 12 6 0 9 -8
6 -20 -3 -11 -1 -20 3 -20 9 0 34 -60 31 -73 -1 -5 3 -6 9 -2 12 8 72 -53 64
-66 -3 -5 -2 -9 3 -8 22 4 44 -2 38 -11 -3 -5 6 -12 20 -16 13 -3 22 -10 19
-15 -3 -5 -1 -9 5 -9 5 0 17 -7 25 -16 12 -12 16 -12 16 -2 0 7 6 2 13 -12 7
-14 23 -26 37 -28 14 -2 33 -13 43 -25 16 -20 17 -21 11 -2 -4 13 1 11 14 -8
13 -19 22 -25 27 -17 5 8 12 5 22 -9 8 -12 19 -21 24 -21 5 0 20 -9 32 -20 12
-11 27 -18 35 -15 7 2 11 1 8 -3 -6 -10 21 -35 48 -45 11 -4 16 -13 12 -23 -3
-8 -2 -12 4 -9 6 3 13 -1 16 -9 3 -9 11 -13 18 -9 6 4 4 -2 -4 -12 -9 -11 -10
-16 -2 -11 7 4 12 2 12 -4 0 -6 5 -8 10 -5 6 4 10 3 9 -2 -4 -24 2 -43 13 -37
6 4 8 3 5 -3 -3 -5 0 -21 7 -35 11 -20 11 -29 2 -39 -7 -8 -7 -10 0 -6 7 4 11
-8 11 -38 0 -25 6 -52 14 -62 12 -14 12 -15 0 -9 -9 6 -12 5 -9 -5 3 -8 11
-13 17 -11 7 1 10 -2 6 -8 -3 -6 -10 -8 -15 -5 -4 3 -7 -6 -6 -20 0 -14 3 -25
6 -25 9 0 4 -43 -7 -70 -7 -15 -7 -29 -2 -34 13 -14 11 -29 -2 -20 -8 4 -8 0
0 -15 7 -13 8 -21 2 -21 -6 0 -8 -7 -5 -15 4 -8 0 -23 -7 -32 -8 -9 -9 -14 -3
-10 9 5 12 -8 11 -43 0 -28 -4 -50 -9 -50 -5 0 -6 -5 -3 -10 4 -6 12 -7 18 -3
7 4 6 0 -2 -10 -10 -13 -11 -24 -2 -47 6 -18 6 -28 1 -25 -6 4 -10 2 -10 -4 0
-5 5 -13 10 -16 6 -3 10 -11 10 -16 0 -6 -4 -7 -10 -4 -6 3 -7 -1 -4 -9 3 -9
9 -16 13 -16 4 0 8 -7 8 -15 0 -8 -4 -12 -9 -9 -4 3 -8 0 -8 -5 0 -6 4 -11 9
-11 5 0 8 -14 7 -31 -2 -20 4 -33 15 -39 11 -6 15 -19 13 -39 -3 -23 1 -30 18
-34 18 -5 19 -8 8 -21 -10 -12 -10 -16 0 -16 7 0 10 -7 6 -15 -3 -9 1 -18 9
-21 8 -4 15 -12 15 -19 0 -8 5 -17 12 -21 7 -5 8 -3 3 6 -5 8 -4 11 3 6 6 -4
9 -13 5 -21 -5 -13 7 -20 30 -16 4 0 7 -3 7 -9 0 -5 -6 -10 -12 -10 -7 0 -5
-5 5 -11 9 -6 14 -15 11 -21 -4 -6 -3 -8 3 -5 6 4 21 -2 33 -13 13 -11 20 -20
16 -20 -21 0 71 -61 96 -64 4 -1 13 -8 20 -16 11 -12 11 -12 -6 0 -11 8 -17
10 -13 3 4 -6 21 -18 37 -27 17 -8 27 -10 24 -4 -4 5 4 4 17 -2 31 -16 39 -25
16 -17 -12 4 -16 3 -11 -4 3 -6 17 -9 30 -6 13 2 21 0 18 -4 -3 -5 2 -10 10
-10 30 -3 34 -4 43 -13 5 -5 3 -6 -4 -2 -7 4 -13 2 -13 -4 0 -7 8 -9 20 -5 12
4 20 2 20 -6 0 -8 4 -8 16 1 12 11 15 11 12 -1 -2 -9 4 -13 16 -11 13 2 16 -1
10 -10 -6 -10 -5 -11 7 -1 12 10 17 8 27 -8 11 -17 16 -18 28 -9 10 9 14 9 14
1 0 -6 15 -11 33 -11 18 0 39 -6 46 -12 11 -11 12 -10 6 0 -6 12 -3 12 15 2
12 -6 28 -9 36 -6 8 3 14 -1 14 -9 0 -17 16 -20 25 -5 3 5 11 10 16 10 6 0 7
-5 4 -10 -4 -7 3 -8 21 -4 16 4 25 3 21 -2 -3 -6 4 -11 16 -11 17 -2 19 0 7 7
-9 6 -10 10 -3 10 6 0 15 -5 19 -11 4 -8 9 -7 15 2 8 12 11 11 22 -1 13 -16
51 -24 41 -9 -3 5 -1 9 5 9 5 0 12 -6 14 -12 4 -10 8 -9 16 2 7 10 11 11 11 3
0 -7 5 -13 11 -13 5 0 8 4 5 8 -7 12 48 9 56 -3 5 -7 14 -6 26 2 15 9 22 9 31
0 6 -6 11 -7 11 -3 0 5 6 3 14 -3 12 -10 14 -8 10 11 -5 21 -4 21 6 5 10 -15
14 -16 28 -5 9 7 13 8 10 3 -4 -6 2 -11 12 -11 15 0 17 3 7 15 -10 12 -9 13 1
7 19 -11 62 -15 62 -5 0 5 5 9 11 9 5 0 8 -4 4 -9 -3 -5 0 -13 6 -17 8 -4 9
-3 5 4 -4 7 -1 12 9 12 10 0 13 5 9 13 -5 8 -2 8 9 -2 14 -11 17 -11 17 0 0
11 2 11 10 -1 9 -13 10 -13 10 0 0 13 1 13 10 0 9 -14 14 -7 11 13 -1 4 8 3
19 -3 14 -8 20 -8 20 0 0 6 5 8 10 5 6 -4 18 -1 27 7 9 7 14 8 10 2 -7 -12 29
-12 40 1 5 4 3 5 -4 1 -6 -3 -14 -2 -17 3 -3 5 10 7 29 4 20 -3 35 -1 34 4 -3
20 2 25 16 13 13 -10 19 -9 37 6 12 11 19 14 15 8 -3 -6 0 -11 8 -11 8 0 12 4
9 9 -3 4 7 8 21 8 16 0 24 4 19 11 -4 7 1 9 12 7 11 -2 25 3 32 12 12 13 13
13 7 0 -4 -10 -2 -10 8 2 11 14 17 15 28 5 7 -7 11 -8 7 -3 -12 14 35 46 50
34 9 -8 12 -6 12 6 0 10 4 15 9 12 5 -3 19 5 32 18 19 20 27 22 38 13 11 -9
13 -9 8 0 -4 6 -3 14 3 18 6 4 7 11 4 17 -4 7 -2 8 5 4 6 -4 8 -13 5 -19 -4
-7 4 -1 17 13 13 13 23 28 21 33 -1 5 2 6 8 2 5 -3 31 15 57 42 27 26 51 47
54 46 4 -1 6 3 6 10 -1 32 4 48 13 42 6 -3 10 -1 10 5 0 6 4 9 9 5 6 -3 8 4 6
16 -3 16 0 19 12 15 13 -5 14 -4 3 9 -10 12 -9 15 6 15 16 0 17 2 4 11 -11 8
-12 12 -2 16 6 2 9 10 5 16 -4 6 0 8 9 5 8 -4 15 0 15 8 0 7 -5 10 -11 7 -6
-4 -5 1 3 10 7 9 10 17 5 17 -5 0 -2 5 6 10 11 7 12 10 2 10 -10 0 -9 4 3 16
11 12 13 20 6 27 -8 8 -5 17 7 31 9 11 11 16 5 12 -7 -4 -13 -2 -13 3 0 6 3
11 8 11 4 0 8 11 8 25 1 14 -2 23 -7 20 -9 -6 -5 18 10 59 10 24 9 27 -4 22
-13 -4 -14 -2 -5 14 7 13 7 21 -1 26 -9 5 -6 11 6 21 17 12 18 13 1 13 -9 0
-14 5 -11 10 4 6 12 7 18 3 7 -3 3 4 -8 17 -11 13 -14 20 -7 16 16 -9 16 6 0
23 -11 12 -9 13 7 7 18 -6 17 -5 -3 17 -17 18 -20 27 -11 32 7 5 10 4 6 -2 -3
-5 0 -10 8 -10 13 0 13 3 1 16 -7 9 -11 22 -8 30 3 9 0 11 -8 6 -9 -6 -11 -4
-4 6 14 24 16 51 2 43 -9 -5 -9 -2 1 9 11 14 11 17 0 17 -12 0 -12 2 0 9 11 7
11 9 0 13 -12 4 -11 8 1 23 9 11 10 16 3 11 -17 -9 -17 6 0 23 10 11 9 13 -1
7 -7 -4 -12 -2 -13 6 -4 45 -3 56 3 80 5 20 2 28 -10 31 -15 4 -15 5 0 6 11 1
15 6 12 16 -11 27 -10 144 1 135 6 -5 10 2 10 20 1 16 -2 27 -5 25 -4 -2 -7 2
-7 10 0 8 4 12 8 10 4 -3 10 2 13 11 3 8 2 12 -4 9 -6 -3 -10 -1 -10 4 0 6 5
11 11 11 8 0 7 5 -1 15 -11 13 -10 14 3 9 12 -4 15 0 13 20 -2 14 1 26 6 26 5
0 6 4 3 10 -3 5 0 10 7 10 9 0 9 3 -2 10 -10 6 -11 10 -2 10 6 0 12 7 12 16 0
11 5 14 16 10 14 -5 15 -4 4 9 -9 11 -9 15 -1 15 7 0 9 5 5 12 -5 7 -2 9 8 6
11 -5 14 0 10 20 -4 21 -2 24 12 19 9 -4 14 -3 11 2 -3 5 -1 12 5 16 6 4 7 11
4 17 -4 7 -2 8 4 4 11 -6 16 5 13 26 0 4 5 5 13 2 8 -3 23 8 35 25 12 17 25
30 29 30 4 -1 22 4 40 12 21 9 30 18 27 28 -5 12 -3 12 12 0 11 -9 14 -10 9
-1 -4 7 -1 12 9 12 10 0 13 5 9 13 -6 9 -4 9 8 -1 17 -13 35 -1 24 17 -3 4 9
8 27 7 25 -1 32 3 31 17 -2 15 1 16 13 5 12 -10 17 -9 24 4 5 9 19 14 34 13
16 -2 23 1 18 7 -4 7 2 9 15 6 12 -4 20 -2 16 3 -3 5 0 9 7 9 7 0 9 -10 7 -25
-3 -14 -2 -28 3 -31 5 -2 4 -15 -1 -28 -5 -13 -6 -26 -4 -29 3 -3 6 -19 6 -36
1 -17 4 -28 8 -26 4 2 13 -8 19 -23 l13 -27 -22 20 -22 20 21 -38 c12 -21 17
-36 11 -32 -5 3 -10 1 -10 -4 0 -6 5 -11 10 -11 6 0 10 -5 10 -11 0 -5 -5 -7
-11 -3 -8 4 -8 0 0 -15 7 -12 9 -26 6 -31 -4 -6 0 -13 8 -16 9 -3 14 -16 12
-29 -1 -14 1 -22 6 -20 9 6 18 -19 21 -62 1 -18 6 -33 11 -33 5 0 7 -7 3 -15
-3 -9 3 -19 15 -26 17 -9 18 -13 7 -27 -7 -9 -8 -13 -2 -9 7 4 15 0 18 -9 4
-10 2 -13 -7 -8 -9 6 -9 5 0 -8 7 -8 9 -19 5 -23 -4 -5 -2 -5 5 -1 6 3 14 2
18 -4 3 -5 1 -10 -4 -10 -6 0 -11 -5 -11 -11 0 -6 7 -8 16 -5 8 3 12 2 9 -4
-3 -6 0 -10 7 -10 9 0 9 -3 -2 -10 -10 -6 -11 -10 -2 -10 6 0 12 -12 12 -27 0
-22 2 -25 10 -13 8 12 10 11 10 -7 0 -15 6 -23 18 -23 14 0 15 -2 2 -10 -13
-9 -13 -10 0 -10 13 0 13 -1 0 -10 -13 -8 -12 -10 4 -10 13 0 17 -5 13 -20 -3
-11 0 -18 7 -17 6 1 10 -3 9 -10 -2 -7 4 -10 12 -7 11 5 13 2 9 -10 -4 -10 -1
-16 7 -16 7 0 10 -3 6 -6 -3 -4 1 -13 9 -21 8 -9 13 -22 10 -29 -3 -8 0 -13 7
-11 7 1 11 -4 9 -12 -2 -8 3 -11 12 -8 11 4 13 1 9 -10 -5 -12 -3 -14 8 -8 12
8 12 6 0 -8 -12 -15 -12 -17 2 -11 12 4 15 1 12 -15 -2 -12 0 -19 6 -16 5 4 9
-1 9 -9 0 -8 10 -22 22 -30 12 -9 18 -16 13 -16 -5 0 -1 -6 10 -13 10 -8 15
-19 11 -25 -4 -7 -1 -12 9 -12 9 0 13 -4 10 -10 -3 -5 2 -10 12 -11 11 0 13
-3 5 -6 -9 -3 -4 -14 17 -33 16 -16 26 -32 23 -36 -4 -4 2 -4 12 0 17 6 17 5
5 -11 -9 -11 -10 -14 -1 -9 7 4 12 1 12 -8 0 -9 6 -16 14 -16 8 0 18 -5 22
-12 4 -7 3 -8 -4 -4 -7 4 -12 2 -12 -5 0 -6 8 -9 19 -6 13 3 18 0 15 -8 -3 -7
0 -16 5 -20 6 -3 8 -12 4 -18 -4 -7 2 -5 12 3 11 9 16 10 11 3 -4 -8 -1 -13 8
-13 9 0 15 -5 14 -12 -2 -6 10 -18 25 -26 18 -9 26 -19 23 -28 -4 -11 -2 -12
14 -4 15 8 20 6 25 -10 4 -11 11 -18 16 -15 5 4 9 1 9 -6 0 -7 3 -10 6 -6 4 3
15 -4 26 -16 11 -12 17 -16 13 -9 -3 6 -1 12 4 12 6 0 11 -7 11 -16 0 -8 4
-12 10 -9 5 3 10 1 10 -4 0 -6 9 -11 20 -11 11 0 20 -5 20 -11 0 -5 4 -7 10
-4 6 3 10 0 10 -7 0 -11 2 -10 9 0 6 10 10 8 15 -10 6 -22 7 -23 21 -4 12 16
15 17 15 4 0 -10 7 -15 17 -14 10 2 23 -3 30 -10 7 -7 24 -11 38 -10 14 2 25
-1 25 -6 0 -5 10 -4 21 3 12 6 19 7 15 1 -3 -5 1 -13 10 -16 9 -4 13 -2 8 5
-4 8 1 9 15 4 12 -4 28 -2 35 4 9 8 19 5 36 -11 20 -19 23 -19 17 -4 -5 14 -3
17 8 13 8 -4 16 -3 19 1 2 4 26 7 53 7 33 0 54 6 66 18 14 14 22 16 32 7 9 -8
15 -8 20 0 3 6 10 8 15 5 4 -3 15 7 25 21 14 22 19 23 33 12 10 -8 13 -9 9 -1
-5 7 1 16 13 23 11 6 20 8 20 5 0 -3 6 0 14 7 8 7 12 16 9 21 -2 4 7 7 21 7
23 0 31 9 27 33 -1 5 3 6 8 3 13 -8 42 4 35 15 -3 5 2 6 10 3 9 -3 16 -1 16 6
0 6 5 8 10 5 6 -3 13 0 16 9 3 9 12 12 22 9 9 -4 14 -2 10 2 -5 5 2 13 15 20
15 8 24 8 29 1 5 -8 8 -7 8 1 0 7 9 10 21 8 17 -3 19 -2 9 10 -10 12 -8 13 9
10 12 -2 21 1 21 6 0 6 5 7 10 4 6 -4 18 -1 27 7 14 11 16 11 8 -2 -6 -11 -3
-10 11 2 13 11 24 14 30 8 12 -12 56 -1 47 13 -4 6 -1 7 8 2 7 -5 22 -10 31
-10 13 -1 15 2 7 11 -8 10 -6 13 10 11 11 0 18 -4 16 -7 -2 -3 5 -6 15 -6 10
0 16 4 13 8 -2 5 7 7 21 4 15 -3 26 0 26 6 0 6 3 8 7 5 3 -4 12 -2 19 4 8 7
14 6 20 -2 4 -8 3 -9 -4 -5 -7 4 -12 2 -12 -3 0 -14 13 -14 28 1 7 7 12 8 12
4 0 -5 8 -2 17 5 9 8 14 9 10 3 -4 -7 0 -14 8 -18 8 -3 14 0 12 7 -1 7 7 11
22 9 14 -2 21 0 17 7 -4 7 -1 8 8 5 9 -3 13 -11 10 -18 -3 -6 2 -2 10 8 10 13
16 15 16 7 0 -11 3 -11 17 0 11 10 14 10 9 2 -4 -7 -2 -13 3 -13 6 0 11 4 11
10 0 5 7 7 15 4 8 -4 12 -11 8 -17 -3 -6 -1 -7 6 -3 6 4 9 12 6 17 -8 13 9 11
22 -2 8 -8 13 -7 18 2 6 8 4 10 -5 4 -9 -6 -11 -4 -5 5 6 10 11 9 22 -5 7 -11
13 -13 13 -6 0 7 5 9 13 5 7 -5 6 0 -3 11 -14 17 -14 18 7 7 27 -15 66 -16 58
-2 -10 17 7 11 22 -7 8 -10 12 -12 8 -6 -3 7 -1 13 5 13 6 0 8 5 4 12 -6 10
-4 10 7 2 8 -6 23 -9 34 -7 11 2 43 5 70 7 28 1 56 5 62 9 6 4 14 1 16 -5 4
-8 6 -7 6 4 1 9 6 20 13 24 7 4 8 3 4 -4 -10 -16 7 -15 23 1 11 9 12 9 7 0 -5
-9 -2 -11 8 -7 9 3 13 11 10 16 -4 6 3 5 15 -1 15 -8 21 -9 21 -1 0 6 4 9 9 5
5 -3 13 -1 16 5 5 8 11 8 19 1 10 -8 18 -5 31 9 20 22 41 27 29 7 -5 -8 -2 -8
9 2 19 15 23 26 5 15 -7 -4 -8 -3 -4 4 5 9 13 9 29 0 21 -11 21 -10 7 7 -10
12 -10 16 -2 11 7 -4 20 -2 29 6 14 11 16 11 9 -2 -4 -9 -2 -8 7 2 8 10 17 15
20 11 4 -3 7 -1 7 6 0 7 5 9 10 6 6 -3 10 -1 10 5 0 7 7 9 16 6 14 -5 15 -4 5
8 -11 13 -9 15 8 11 14 -2 21 1 21 11 0 8 4 13 9 10 12 -8 42 4 36 14 -3 4 2
11 11 14 9 3 12 11 8 18 -5 9 -3 9 9 -1 15 -12 17 -11 17 7 0 16 4 20 17 15
11 -4 14 -3 9 5 -4 7 -3 12 1 12 5 0 18 7 29 16 10 8 13 12 5 8 -10 -5 -12 -3
-7 5 5 7 14 10 22 7 9 -3 11 0 7 11 -4 11 -2 14 5 9 7 -4 14 3 18 19 3 14 11
25 18 25 6 0 18 15 27 33 9 17 22 31 29 29 8 -2 10 3 6 13 -4 10 2 19 17 25
12 5 16 9 10 9 -7 1 -13 6 -13 12 0 5 5 7 10 4 6 -3 10 1 10 10 0 9 5 13 10
10 6 -3 10 3 10 14 0 11 5 23 10 26 5 3 10 12 10 18 0 7 -4 6 -10 -3 -5 -8
-10 -11 -10 -7 0 12 21 51 31 58 5 3 10 27 12 53 2 27 10 52 18 57 11 7 9 9
-6 9 -17 0 -17 2 -5 10 8 5 11 10 7 10 -4 0 -3 10 4 21 6 12 7 19 1 15 -5 -3
-13 1 -16 10 -5 12 -2 15 10 10 14 -5 15 -4 4 9 -10 12 -10 15 5 15 14 0 13 3
-6 21 l-24 20 25 -6 c14 -4 20 -3 14 2 -20 14 -22 109 -2 97 7 -4 8 -3 4 5 -4
6 -12 8 -18 5 -7 -5 -9 -2 -5 8 3 9 1 20 -5 26 -8 8 -4 9 13 6 18 -4 20 -3 9
4 -10 7 -14 24 -14 49 2 54 3 55 17 47 8 -5 8 -2 -2 9 -14 18 -26 23 -16 8 3
-5 1 -12 -4 -15 -10 -7 -9 20 2 30 3 4 1 16 -5 27 -8 16 -8 19 4 14 8 -3 15 1
15 9 0 7 -4 11 -8 8 -12 -7 -17 19 -8 43 5 13 4 25 -1 28 -13 8 -1 34 13 31 7
-1 9 -1 4 1 -4 3 -4 10 -1 15 4 7 2 8 -4 4 -7 -4 -12 -3 -12 3 0 5 4 12 9 16
6 3 6 18 1 35 -5 17 -5 28 0 25 13 -8 18 18 8 37 -5 12 -5 18 2 18 14 0 13 33
-2 50 -11 12 -10 12 3 2 14 -10 18 -10 23 3 3 10 0 15 -11 15 -15 0 -15 2 2
13 10 8 15 19 12 24 -4 6 0 13 8 17 9 3 15 18 15 38 0 25 3 29 10 18 8 -12 10
-10 10 9 0 13 12 35 28 49 15 14 26 28 25 31 -2 3 1 6 6 6 5 0 18 10 29 22 10
13 23 19 27 15 5 -4 5 1 2 11 -4 10 -3 16 2 12 5 -3 12 -1 16 5 3 5 16 10 28
10 18 0 19 2 7 10 -12 8 -9 10 13 10 15 0 27 5 27 11 0 5 5 7 12 3 8 -5 9 -2
5 10 -6 14 -4 15 16 5 20 -11 21 -11 8 5 -12 14 -12 16 3 10 9 -3 16 -1 16 4
0 6 9 9 20 7 11 -2 18 0 15 6 -4 5 -1 9 5 9 6 0 8 4 5 10 -3 6 1 7 9 4 9 -3
16 -1 16 5 0 6 7 8 17 4 12 -5 14 -3 8 7 -6 10 -2 12 18 8 14 -3 26 -2 25 1
-2 18 3 33 9 28 3 -4 13 2 20 13 8 11 19 18 24 15 5 -4 9 -2 9 4 0 6 7 7 17 4
11 -4 14 -3 9 5 -4 7 -2 12 3 12 6 0 13 0 16 0 3 0 15 9 28 20 55 51 60 55 52
41 -5 -9 -4 -12 3 -7 7 4 12 15 12 24 0 15 2 15 10 2 8 -13 10 -12 10 3 0 10
5 15 10 12 6 -3 10 1 10 9 0 14 12 20 33 17 7 -1 11 15 8 32 -1 5 3 6 9 2 11
-7 43 19 34 28 -3 2 7 8 23 11 21 6 24 9 12 17 -12 7 -11 9 2 9 9 0 20 7 23
16 3 8 10 12 16 9 5 -3 7 0 4 8 -3 8 0 18 7 23 8 4 10 3 5 -4 -4 -7 -2 -12 3
-12 6 0 11 7 11 15 0 7 8 19 18 24 9 6 13 11 7 11 -5 0 1 7 13 16 22 15 32 41
10 28 -7 -4 -8 -3 -4 5 4 6 11 9 16 6 10 -6 32 20 23 28 -3 4 -1 7 5 7 7 0 12
8 12 18 0 15 2 15 11 2 9 -12 10 -11 6 5 -3 18 14 47 25 42 2 -1 -3 3 -10 9
-10 9 -8 13 7 17 14 3 19 11 16 26 -2 12 0 19 5 16 5 -3 11 -1 15 5 3 5 1 10
-5 10 -7 0 -6 6 3 15 9 8 13 24 10 36 -5 17 -3 20 8 14 8 -5 11 -5 7 0 -4 4
-3 14 3 21 7 8 6 14 -2 20 -8 5 -9 3 -4 -6 5 -9 4 -11 -4 -6 -6 4 -9 12 -5 17
3 5 9 7 14 4 13 -8 20 21 7 34 -8 8 -8 11 1 11 7 0 12 5 12 11 0 5 -5 7 -12 3
-6 -4 -4 3 5 16 15 22 15 25 -1 44 -9 11 -12 16 -6 13 7 -4 12 3 12 18 0 14
-6 25 -12 25 -6 0 -4 5 4 10 13 9 13 10 0 10 -13 0 -13 1 0 10 11 7 11 10 2
10 -8 0 -10 5 -5 13 10 16 13 37 5 36 -20 -3 -25 2 -12 11 12 8 12 10 -5 10
-17 0 -17 2 -5 10 8 5 10 10 5 10 -6 0 -12 12 -13 27 -1 15 -8 30 -15 35 -9 6
-8 8 2 8 11 0 10 4 -5 16 -10 8 -14 13 -8 10 6 -3 11 1 11 9 0 8 -3 13 -5 10
-10 -9 -31 17 -25 31 3 8 0 14 -7 14 -10 0 -10 3 -1 14 10 11 8 16 -8 21 -12
4 -21 15 -21 26 0 11 -4 17 -10 14 -9 -5 -15 16 -11 38 1 5 -3 6 -9 2 -5 -3
-10 1 -10 9 0 9 -4 16 -9 16 -5 0 -11 10 -13 23 -2 15 -9 21 -21 19 -9 -2 -17
1 -16 5 3 20 -2 34 -11 28 -5 -3 -10 1 -10 9 0 9 -6 16 -14 16 -8 0 -18 9 -21
21 -5 14 -13 19 -25 16 -13 -3 -17 0 -13 9 3 8 0 14 -7 14 -6 0 -8 5 -4 12 4
6 3 8 -4 4 -6 -3 -13 -2 -17 4 -4 6 -11 7 -17 4 -6 -4 -9 -3 -6 2 7 10 -11 27
-32 32 -8 2 -19 8 -25 13 -7 7 -3 8 10 4 19 -6 19 -6 2 5 -10 6 -25 9 -34 6
-13 -5 -14 -4 -3 9 11 13 10 14 -5 9 -13 -5 -16 -4 -11 4 5 8 0 12 -13 12 -12
0 -21 5 -21 11 0 6 -7 8 -16 5 -11 -4 -18 1 -21 14 -3 11 -9 18 -13 15 -4 -3
-20 5 -36 17 -16 13 -25 16 -20 8 5 -11 4 -11 -6 1 -7 9 -19 14 -27 11 -9 -3
-11 0 -6 8 6 10 2 12 -13 8 -13 -4 -20 -2 -19 6 1 6 -11 12 -26 14 -16 2 -31
10 -33 17 -3 8 -12 11 -20 8 -8 -3 -14 1 -14 8 0 11 -3 11 -10 -1 -6 -10 -10
-11 -10 -2 0 6 -6 12 -14 12 -7 0 -19 7 -26 15 -7 8 -16 13 -20 10 -5 -3 -11
-1 -15 5 -4 6 -10 8 -15 5 -5 -3 -11 -1 -14 4 -4 5 -17 8 -31 6 -14 -1 -25 1
-25 6 0 4 -17 6 -37 4 -20 -2 -32 0 -26 3 15 10 -6 27 -32 26 -11 0 -26 4 -32
9 -9 6 -13 5 -13 -4 0 -11 -2 -11 -10 1 -5 8 -10 11 -10 6 0 -4 -11 -1 -24 8
-16 10 -27 12 -31 6 -4 -6 -11 -8 -16 -4 -5 3 -7 10 -4 15 4 5 -6 4 -21 -1
-25 -10 -26 -9 -13 7 13 17 13 17 -13 0 -24 -15 -27 -15 -21 -1 5 14 3 15 -17
4 -17 -9 -21 -9 -15 0 5 8 -2 11 -26 9 -25 -3 -33 0 -31 11 3 11 0 11 -12 0
-13 -10 -16 -10 -16 1 0 11 -2 11 -10 -1 -5 -8 -10 -10 -10 -4 0 7 -9 14 -19
17 -14 3 -18 0 -15 -12 3 -9 -1 -6 -7 7 -7 13 -18 21 -25 18 -8 -3 -16 -1 -19
5 -4 5 -13 8 -20 7 -8 -2 -21 6 -30 17 -9 11 -14 14 -10 8 4 -8 0 -13 -10 -13
-9 0 -14 4 -11 9 7 11 -13 28 -39 33 -12 2 -19 10 -17 21 2 10 -4 17 -13 17
-13 0 -17 6 -14 26 0 3 -10 14 -22 25 -12 10 -18 19 -14 19 5 0 1 6 -8 13 -9
6 -18 25 -21 42 -3 16 -10 31 -16 33 -5 2 -8 8 -4 13 3 5 1 9 -4 9 -8 0 -15
13 -26 50 -1 3 -4 10 -8 15 -6 10 17 38 26 33 2 -2 16 7 30 19 16 14 26 18 26
10 1 -6 7 -1 14 12 8 15 16 20 20 12 4 -6 13 -11 19 -11 7 0 6 4 -3 10 -13 8
-13 11 -1 22 10 10 12 10 7 1 -9 -16 10 -17 20 -2 4 8 9 7 15 -2 7 -11 9 -10
9 5 0 12 5 16 15 12 8 -3 15 0 15 7 0 8 3 8 9 -2 6 -9 11 -10 15 -2 10 15 29
14 21 -1 -4 -7 4 -2 16 12 12 14 20 18 17 10 -5 -12 1 -16 23 -14 16 1 37 8
46 16 14 11 16 11 11 -3 -6 -16 18 -23 37 -9 19 13 46 20 40 10 -10 -17 17
-11 38 8 19 16 20 16 8 -5 -7 -13 -8 -23 -2 -23 5 0 12 6 14 13 4 8 6 8 6 -2
1 -11 5 -10 17 5 8 10 13 13 9 7 -8 -16 51 -18 60 -2 5 7 14 3 26 -10 22 -23
38 -29 20 -7 -9 11 -6 12 14 8 15 -2 22 -9 18 -16 -4 -7 -2 -7 7 1 8 8 20 9
36 3 15 -6 26 -5 30 1 4 7 10 7 18 0 7 -6 16 -8 20 -4 10 11 48 14 42 4 -3 -5
3 -7 14 -4 11 3 18 9 15 12 -2 4 2 8 10 8 8 0 12 -4 9 -9 -3 -4 0 -8 5 -8 6 0
11 8 12 18 0 14 2 14 7 2 9 -20 33 -24 26 -5 -4 8 -2 15 4 15 6 0 13 -6 15
-12 4 -10 6 -10 6 -1 1 7 11 17 22 24 15 8 19 8 15 0 -4 -6 -5 -11 -1 -11 9 0
50 24 57 35 5 6 8 5 8 -3 0 -10 3 -10 14 0 8 7 12 16 10 20 -2 3 4 5 13 4 10
-2 28 8 41 21 12 13 27 21 34 17 6 -4 8 -3 5 3 -4 5 3 19 13 31 11 12 20 26
20 32 0 6 4 9 9 6 5 -3 12 1 15 10 4 10 2 13 -7 9 -6 -4 -1 3 13 15 14 12 20
19 14 16 -7 -3 -14 1 -17 8 -4 10 0 14 13 11 16 -3 18 0 10 21 -5 13 -6 24 -2
24 4 0 8 9 9 20 1 11 -4 20 -10 20 -8 0 -8 3 -2 8 12 9 16 54 3 46 -5 -3 -7 6
-4 20 3 15 -1 32 -10 40 -11 11 -11 16 -1 19 9 4 9 6 0 6 -17 1 -17 28 -1 35
7 3 6 4 -4 3 -9 -1 -16 1 -15 4 1 3 -4 13 -12 22 -9 11 -10 17 -2 17 6 0 11 5
11 10 0 6 -9 10 -20 10 -11 0 -20 5 -20 11 0 5 5 7 11 3 8 -4 8 -1 0 14 -6 12
-10 25 -10 29 3 14 -13 43 -21 38 -11 -7 -7 29 5 37 6 4 0 8 -12 8 -13 0 -23
5 -23 11 0 5 4 8 8 5 5 -3 9 1 9 9 0 8 -5 13 -10 12 -5 -1 -11 14 -11 33 -1
19 -8 46 -15 59 -17 31 -22 73 -7 64 6 -4 2 4 -8 16 -15 16 -16 20 -5 16 10
-4 16 0 16 9 0 8 -5 12 -10 9 -6 -4 -8 0 -4 9 3 9 0 21 -6 28 -10 10 -8 10 8
2 17 -9 20 -7 20 13 0 13 -3 21 -7 18 -5 -2 -8 0 -8 5 0 6 7 13 16 16 14 5 14
9 3 23 -12 14 -12 16 0 8 11 -6 13 -4 8 8 -4 12 -1 17 11 17 15 0 15 2 2 10
-13 9 -7 14 13 11 4 0 7 4 7 10 0 5 6 7 13 3 8 -5 8 -2 -2 9 -9 12 -10 17 -2
17 7 0 10 4 6 9 -3 6 4 8 16 6 12 -2 19 -2 16 2 -12 11 14 43 34 43 11 0 18 4
15 9 -3 5 1 12 10 15 10 4 13 2 8 -6 -4 -7 -3 -8 4 -4 7 4 12 15 12 24 0 12 3
13 8 5 9 -14 24 -6 41 22 8 13 11 14 7 3 -6 -21 22 -18 39 5 7 9 18 17 25 17
7 0 21 10 31 22 13 14 19 17 20 7 0 -8 4 -4 10 9 5 13 13 20 19 17 10 -6 15 9
10 30 -1 5 2 7 6 3 4 -4 13 0 20 10 12 16 13 16 10 -3 -1 -11 2 -5 8 13 5 18
15 31 21 28 6 -2 12 2 12 10 0 7 -5 11 -11 8 -6 -3 -4 0 4 8 9 7 15 20 14 28
0 8 6 26 14 39 8 13 9 20 3 17 -6 -4 -11 -3 -11 3 0 5 6 12 12 14 10 4 9 6 -1
6 -11 1 -11 4 -1 16 7 8 8 15 3 15 -5 0 -9 18 -9 40 1 32 -2 39 -14 35 -9 -3
-7 1 4 10 11 8 14 15 7 15 -7 0 -9 5 -6 10 3 6 -2 10 -12 10 -10 0 -14 4 -8 8
17 12 16 32 -2 32 -15 0 -16 2 -3 10 13 8 13 10 -2 10 -11 0 -15 6 -11 20 3
11 0 20 -6 20 -6 0 -11 5 -11 11 0 7 -7 17 -15 23 -8 6 -16 22 -19 36 -2 14
-8 24 -14 23 -6 -1 -13 4 -16 13 -3 8 -2 12 3 9 5 -3 13 0 17 6 4 8 3 9 -4 5
-7 -4 -12 -2 -12 3 0 6 -3 10 -7 10 -5 -1 -15 -1 -23 0 -13 1 -13 2 0 11 11 7
11 10 2 10 -8 0 -10 5 -6 12 5 8 2 9 -10 5 -9 -4 -15 -3 -11 2 3 5 -1 15 -8
23 -8 7 -16 20 -20 28 -4 11 -6 11 -6 2 -1 -20 -31 12 -31 33 0 9 -4 13 -10
10 -5 -3 -10 1 -10 9 0 9 -7 16 -15 16 -8 0 -15 5 -15 10 0 6 -7 10 -16 10
-11 0 -15 6 -11 19 3 14 1 18 -9 14 -8 -3 -14 1 -14 8 0 7 -3 10 -6 6 -9 -8
-33 16 -26 27 3 5 -2 7 -11 3 -12 -4 -17 -1 -17 11 0 15 -2 15 -10 2 -8 -13
-10 -12 -10 3 0 10 -5 15 -10 12 -5 -3 -10 2 -10 12 0 15 -2 16 -10 3 -8 -13
-10 -12 -10 3 0 10 -8 17 -18 17 -10 0 -24 9 -32 20 -10 14 -16 16 -22 7 -5
-8 -8 -7 -8 5 0 11 -7 15 -25 13 -20 -2 -23 0 -14 12 10 11 8 12 -6 7 -14 -6
-16 -4 -10 7 7 11 5 11 -10 -1 -11 -9 -16 -10 -11 -2 4 7 1 12 -9 12 -9 0 -14
4 -11 9 3 4 -6 7 -19 5 -15 -1 -25 3 -25 11 0 14 -27 28 -40 20 -5 -3 -12 -1
-15 5 -5 8 -11 7 -21 -1 -12 -10 -13 -9 -8 5 5 12 2 15 -12 9 -13 -5 -15 -3
-9 8 7 11 5 11 -10 -1 -10 -8 -16 -10 -12 -4 4 7 0 15 -9 18 -8 3 -12 2 -9 -4
3 -6 -1 -7 -9 -4 -9 3 -14 10 -11 14 2 4 -13 6 -35 5 -30 -2 -40 2 -40 13 0
12 -2 12 -17 1 -11 -10 -14 -10 -9 -1 8 13 -2 16 -45 13 -17 0 -29 6 -34 17
-6 16 -7 16 -21 -2 -12 -17 -14 -17 -14 -3 0 14 -4 15 -26 7 -14 -6 -23 -6
-20 -1 3 5 -1 12 -10 15 -21 8 -26 8 -20 -2 3 -5 -1 -9 -9 -9 -8 0 -12 4 -9 9
8 12 -10 10 -23 -3 -8 -8 -13 -7 -18 2 -5 8 -4 10 3 5 8 -5 10 -1 5 10 -4 11
-8 13 -11 6 -2 -7 -13 -12 -23 -12 -13 0 -18 4 -13 13 4 6 -3 3 -15 -7 -18
-17 -21 -17 -15 -3 7 19 -11 24 -22 6 -4 -8 -9 -7 -15 2 -7 11 -9 11 -9 -1 0
-13 -1 -13 -10 0 -7 12 -12 12 -21 3 -10 -10 -17 -9 -33 5 -11 9 -16 11 -12 5
4 -7 2 -13 -3 -13 -6 0 -11 7 -11 16 0 8 -5 12 -10 9 -6 -4 -8 -10 -5 -15 3
-4 -4 -6 -15 -3 -11 3 -20 10 -20 17 0 6 -5 4 -10 -4 -8 -13 -10 -13 -10 -1 0
11 -4 10 -16 -5 -8 -10 -13 -14 -10 -7 4 6 2 14 -4 18 -5 3 -10 1 -10 -6 0 -8
-5 -7 -17 2 -15 12 -16 12 -9 -6 6 -16 5 -18 -5 -7 -7 6 -17 12 -22 12 -4 0
-5 -6 -2 -12 4 -7 0 -5 -8 5 -15 18 -15 18 -20 0 -4 -16 -5 -16 -6 -1 -1 14
-5 16 -26 8 -18 -7 -25 -6 -25 3 0 8 -3 8 -9 -2 -5 -8 -11 -9 -15 -3 -7 11
-24 11 -43 -1 -6 -4 -14 -1 -16 5 -4 10 -6 10 -6 0 -1 -8 -6 -10 -13 -5 -19
11 -39 13 -32 2 6 -11 -9 -12 -20 -2 -11 11 -40 10 -48 -2 -5 -6 -15 -5 -29 3
-16 10 -19 10 -13 1 5 -9 2 -10 -9 -6 -10 3 -17 2 -17 -3 0 -6 -4 -10 -10 -10
-5 0 -7 7 -4 15 5 11 2 13 -10 9 -9 -3 -13 -11 -9 -18 4 -6 -1 -5 -10 3 -14
11 -17 11 -17 0 0 -11 -2 -11 -10 1 -8 12 -10 12 -10 -5 0 -19 -1 -19 -15 2
-13 18 -18 20 -39 10 -13 -7 -23 -14 -21 -17 2 -3 -7 -5 -20 -5 -13 0 -21 3
-19 6 2 4 -5 9 -16 12 -11 3 -18 2 -15 -3 3 -4 -2 -11 -11 -14 -8 -3 -12 -2
-9 4 7 11 -8 14 -19 3 -13 -13 -38 -12 -32 2 3 9 0 12 -9 8 -8 -3 -13 -8 -10
-12 2 -4 -2 -8 -10 -8 -8 0 -12 4 -10 8 3 4 -2 6 -11 5 -8 -1 -20 -9 -25 -17
-7 -11 -9 -11 -9 4 0 21 -13 22 -30 2 -10 -12 -16 -13 -26 -4 -11 9 -14 8 -14
-2 -1 -9 -6 -7 -17 6 -15 20 -15 20 -10 -3 4 -17 2 -21 -6 -14 -7 5 -26 12
-44 15 -24 5 -35 2 -42 -11 -6 -10 -11 -12 -11 -4 0 6 -5 12 -11 12 -5 0 -8
-4 -5 -8 3 -5 -1 -9 -9 -9 -8 0 -15 7 -16 16 0 14 -1 14 -7 1 -8 -17 -53 -21
-64 -5 -5 7 -8 6 -8 -1 0 -7 -18 -11 -45 -10 -25 1 -45 -3 -45 -9 0 -7 -3 -7
-8 0 -10 15 -35 12 -50 -5 -11 -13 -11 -13 -7 0 4 11 -1 16 -14 16 -11 0 -18
-4 -15 -8 2 -4 -12 -4 -32 -1 -26 4 -35 3 -30 -5 3 -6 2 -14 -4 -17 -6 -4 -9
-1 -8 6 2 7 -5 15 -16 17 -10 2 -16 0 -13 -5 4 -5 0 -10 -8 -10 -8 0 -12 4 -9
8 5 9 -62 2 -79 -8 -6 -3 -7 -1 -3 5 4 7 1 12 -9 12 -9 0 -13 -4 -10 -10 3 -5
1 -10 -4 -10 -6 0 -11 5 -11 11 0 8 -6 7 -17 -2 -14 -12 -16 -12 -8 0 6 11 4
13 -7 8 -9 -3 -21 0 -28 6 -9 9 -11 9 -7 1 4 -7 0 -14 -8 -18 -8 -3 -15 -1
-15 5 0 6 -8 5 -21 -2 -17 -9 -20 -8 -14 2 6 9 3 10 -11 5 -24 -10 -74 -14
-74 -6 0 3 -9 6 -20 7 -13 1 -18 -2 -13 -10 5 -9 3 -9 -8 -1 -8 6 -26 14 -41
16 -21 4 -28 1 -28 -11 -1 -15 -1 -15 -10 0 -6 11 -18 15 -36 11 -16 -3 -29 1
-35 9 -6 10 -9 10 -9 2 0 -7 -8 -13 -18 -13 -10 0 -24 6 -31 13 -10 8 -12 8
-7 0 7 -13 -31 -12 -53 2 -10 6 -12 4 -6 -6 8 -12 6 -12 -8 0 -9 7 -17 9 -17
4 0 -5 -7 -10 -15 -10 -18 0 -20 14 -2 20 6 2 0 4 -14 3 -19 -1 -25 -6 -22
-16 4 -13 3 -13 -9 0 -7 8 -26 16 -43 17 -22 2 -26 0 -15 -7 12 -7 10 -9 -7
-7 -12 0 -19 5 -16 11 4 5 -7 7 -26 3 -18 -4 -30 -3 -27 1 3 5 -1 9 -9 9 -8 0
-12 -4 -9 -9 3 -4 0 -8 -5 -8 -6 0 -11 5 -11 10 0 6 -10 10 -22 10 -19 0 -20
-2 -8 -10 8 -5 11 -10 6 -10 -5 0 -18 8 -29 18 -11 9 -17 12 -14 5 4 -6 3 -14
-3 -18 -5 -3 -10 -2 -10 3 0 6 -18 9 -40 8 -23 -1 -43 1 -46 6 -3 5 -10 6 -15
3 -5 -4 -9 -1 -9 5 0 8 -6 8 -20 0 -15 -8 -20 -8 -20 2 0 9 -3 9 -10 -2 -9
-13 -11 -13 -20 0 -9 13 -10 13 -10 0 0 -13 -1 -13 -10 0 -9 13 -10 13 -10 0
0 -13 -1 -13 -10 0 -9 13 -11 13 -20 0 -8 -12 -10 -13 -10 -1 0 8 -3 11 -7 8
-3 -4 -13 -1 -21 6 -13 9 -14 9 -8 0 9 -16 5 -16 -28 -3 -14 5 -26 6 -26 2 0
-4 -9 -8 -20 -8 -11 0 -20 5 -20 11 0 5 -5 3 -10 -5 -5 -8 -10 -10 -10 -5 0 6
-9 11 -20 11 -11 0 -20 -5 -20 -10 0 -6 -5 -5 -12 2 -7 7 -17 8 -30 1 -14 -7
-18 -6 -18 6 0 8 -5 15 -11 15 -5 0 -8 -4 -5 -9 3 -5 -1 -11 -9 -15 -8 -3 -15
0 -15 6 0 7 -4 7 -14 -1 -9 -8 -16 -8 -20 -2 -4 5 -16 8 -28 6 -12 -3 -27 0
-34 6 -8 7 -14 7 -19 -1 -5 -8 -11 -8 -21 1 -12 10 -13 9 -7 -7 7 -18 6 -18
-20 -1 -22 14 -25 14 -21 2 5 -13 2 -14 -20 -5 -19 7 -26 6 -26 -3 0 -8 -4 -7
-10 3 -5 8 -10 10 -10 5 0 -6 -23 -9 -56 -8 -42 2 -53 0 -48 -10 6 -9 4 -9 -7
-1 -20 15 -45 11 -41 -6 2 -13 0 -13 -10 0 -7 8 -19 16 -27 18 -12 3 -12 1 0
-14 13 -16 12 -16 -8 -6 -30 16 -36 15 -29 -5 6 -14 4 -14 -16 2 -13 11 -20
16 -15 11 4 -6 -7 -16 -25 -24 -38 -17 -69 -22 -62 -11 2 4 -9 1 -25 -7 -16
-8 -32 -21 -35 -29 -3 -8 -12 -15 -20 -15 -9 0 -20 -9 -26 -20 -6 -11 -15 -18
-21 -15 -9 6 -13 -8 -9 -35 1 -8 -1 -12 -5 -8 -6 6 -45 -26 -45 -38 0 -11 -28
-33 -34 -27 -3 4 -6 -4 -6 -16 0 -12 -4 -19 -10 -16 -5 3 -10 1 -10 -4 0 -6
-6 -11 -14 -11 -8 0 -17 -9 -21 -19 -7 -25 -36 -37 -29 -13 2 9 -1 7 -7 -6 -7
-13 -18 -21 -26 -18 -9 4 -11 1 -7 -5 4 -7 -1 -9 -15 -4 -17 5 -20 3 -14 -11
5 -13 3 -15 -8 -9 -20 13 -49 13 -56 2 -4 -6 -1 -7 7 -2 9 6 11 4 6 -4 -5 -7
-10 -10 -13 -7 -3 2 -16 1 -30 -5 -13 -5 -22 -6 -20 -1 3 4 -8 7 -23 7 -15 0
-27 -2 -25 -5 2 -4 -6 -12 -17 -19 -19 -12 -20 -11 -14 6 6 17 5 17 -8 1 -15
-20 -31 -24 -20 -5 6 9 4 9 -8 -1 -8 -7 -31 -14 -49 -15 -19 -2 -40 -7 -48
-11 -9 -6 -12 -5 -7 2 4 7 -1 10 -14 9 -11 -1 -20 -5 -20 -10 0 -4 -4 -5 -10
-2 -5 3 -10 1 -10 -6 0 -8 -5 -7 -17 2 -15 12 -16 12 -10 -5 6 -15 5 -17 -6
-8 -10 9 -17 8 -27 -1 -7 -6 -10 -7 -7 -1 3 6 0 11 -8 11 -8 0 -11 -5 -8 -10
4 -6 -3 -8 -16 -4 -17 4 -20 2 -12 -7 7 -8 5 -12 -9 -12 -10 0 -16 4 -14 8 3
4 -2 5 -10 2 -9 -3 -16 -11 -16 -18 0 -6 -5 -4 -10 4 -7 12 -10 12 -10 1 0 -7
-6 -11 -14 -8 -9 4 -17 -2 -21 -14 -5 -16 -10 -18 -21 -8 -11 9 -15 8 -20 -6
-5 -13 -9 -14 -15 -3 -7 10 -9 9 -9 -5 0 -11 -6 -17 -12 -14 -7 2 -19 -3 -26
-12 -8 -9 -11 -10 -7 -4 4 9 1 11 -9 7 -9 -3 -13 -10 -10 -15 3 -5 -2 -9 -10
-9 -9 0 -16 -4 -16 -8 0 -5 -10 -13 -23 -19 -25 -12 -57 -37 -124 -100 -25
-24 -50 -43 -56 -43 -5 0 -8 -3 -5 -6 8 -7 -36 -54 -52 -54 -7 0 -10 -7 -6
-15 3 -8 0 -15 -7 -15 -7 0 -18 -9 -25 -21 -11 -17 -11 -20 0 -13 7 4 -2 -7
-19 -25 -18 -18 -33 -37 -33 -42 0 -5 -7 -9 -15 -9 -8 0 -14 -3 -13 -7 3 -16
-21 -61 -36 -66 -9 -4 -16 -18 -16 -32 0 -16 -6 -25 -16 -25 -8 0 -12 -5 -9
-10 3 -6 -1 -13 -10 -16 -8 -4 -14 -11 -13 -18 3 -17 -22 -57 -32 -51 -6 4 -7
-1 -3 -11 3 -10 0 -22 -8 -28 -8 -6 -14 -20 -14 -31 0 -11 -6 -19 -12 -17 -8
1 -13 -8 -13 -22 0 -14 -6 -31 -13 -38 -7 -7 -12 -20 -12 -28 1 -8 -2 -19 -6
-25 -4 -5 -8 -13 -8 -17 -1 -4 -13 -20 -28 -35 l-26 -28 7 25 c4 14 4 20 -1
14 -4 -6 -16 -11 -25 -11 -14 0 -15 3 -6 14 9 11 7 12 -7 7 -13 -6 -16 -4 -10
5 5 10 2 11 -14 6 -12 -3 -21 -3 -20 2 3 20 -2 34 -11 28 -5 -3 -10 -1 -10 4
0 6 -4 11 -10 11 -5 0 -19 9 -30 20 -11 11 -20 25 -20 30 0 6 -6 10 -12 10 -9
0 -8 4 2 10 12 8 11 10 -7 10 -17 0 -23 6 -23 23 0 12 -9 28 -20 35 -12 7 -18
17 -15 22 4 6 11 7 17 4 7 -4 8 -2 4 5 -4 6 -12 9 -17 6 -8 -5 -14 16 -10 38
0 4 -3 7 -8 7 -5 0 -12 7 -15 16 -3 8 -2 12 4 9 6 -3 10 -1 10 4 0 6 -8 11
-17 11 -15 0 -16 2 -3 10 8 5 10 10 4 10 -14 0 -14 33 0 43 6 5 2 6 -10 2 -18
-5 -21 -1 -19 22 1 16 -3 37 -8 48 -9 18 -9 19 7 6 14 -12 16 -12 10 3 -3 9
-11 16 -18 16 -6 0 -4 5 4 10 9 6 11 10 3 10 -7 0 -10 7 -6 17 5 12 3 14 -8 8
-11 -6 -12 -5 -1 6 16 17 15 29 -2 29 -8 0 -17 4 -20 9 -3 5 2 8 11 7 10 0 17
7 18 21 1 18 -1 20 -11 12 -13 -11 -13 -8 -4 36 5 23 -1 36 -12 29 -9 -5 -9
-2 1 9 9 11 10 17 2 17 -6 0 -11 5 -11 11 0 5 4 8 8 5 4 -2 8 4 8 14 0 10 -5
16 -10 13 -5 -4 -7 1 -3 11 6 14 3 17 -10 12 -16 -5 -16 -5 -2 7 12 9 14 18 7
36 -5 14 -6 31 -4 38 3 7 0 13 -7 13 -8 0 -6 4 3 10 13 9 8 14 -12 11 -3 0 -3
13 2 30 7 24 6 30 -4 26 -7 -3 -13 1 -13 9 0 8 5 14 10 14 5 0 4 7 -3 15 -7 8
-10 22 -6 30 3 8 0 15 -7 15 -8 0 -6 4 3 10 9 6 11 10 3 10 -7 0 -10 7 -6 17
4 11 3 14 -5 9 -16 -9 -15 7 0 22 7 7 8 12 2 12 -6 0 -11 12 -12 28 -4 63 -9
83 -25 102 -9 11 -14 20 -11 20 4 0 0 8 -7 17 -12 14 -12 16 1 9 8 -4 6 0 -4
8 -11 9 -14 16 -8 16 7 0 12 5 12 12 0 6 -3 9 -6 5 -9 -9 -32 16 -27 29 2 7
-7 23 -21 37 -14 15 -26 31 -26 37 0 5 -4 10 -9 10 -5 0 -16 12 -26 26 -12 18
-13 24 -4 19 8 -3 5 1 -5 9 -13 11 -15 16 -6 16 9 0 8 6 -6 18 -10 10 -29 18
-42 16 -14 -1 -20 2 -15 9 4 6 0 8 -10 4 -9 -3 -19 -2 -23 4 -4 6 -15 4 -30
-5 -19 -13 -22 -13 -18 -2 6 16 -27 17 -38 1 -5 -6 -8 -4 -8 5 0 13 -1 13 -10
0 -5 -8 -10 -10 -10 -3 0 6 -8 10 -17 8 -10 -2 -18 -4 -18 -5 0 -1 -10 -3 -22
-4 -13 -2 -23 0 -23 3 0 10 -99 6 -107 -4 -5 -4 -2 -5 6 0 10 6 12 4 7 -4 -6
-9 -11 -9 -23 1 -19 16 -41 19 -49 7z m33 -14 c0 -7 -8 -10 -19 -7 -20 5 -17
19 5 19 7 0 14 -6 14 -12z m-47 1 c0 -3 -4 -8 -10 -11 -5 -3 -10 -1 -10 4 0 6
5 11 10 11 6 0 10 -2 10 -4z m5830 -156 c0 -5 -5 -10 -11 -10 -5 0 -7 5 -4 10
3 6 8 10 11 10 2 0 4 -4 4 -10z m215 0 c-3 -5 -12 -10 -18 -10 -7 0 -6 4 3 10
19 12 23 12 15 0z m-645 -30 c0 -5 -2 -10 -4 -10 -3 0 -8 5 -11 10 -3 6 -1 10
4 10 6 0 11 -4 11 -10z m-4775 -140 c3 -5 1 -10 -4 -10 -6 0 -11 5 -11 10 0 6
2 10 4 10 3 0 8 -4 11 -10z m6050 -2380 c3 -5 1 -10 -4 -10 -6 0 -11 5 -11 10
0 6 2 10 4 10 3 0 8 -4 11 -10z m518 -653 c4 3 7 1 7 -5 0 -17 -16 -15 -31 6
-12 15 -12 16 2 5 9 -7 19 -10 22 -6z m-8569 -135 c3 -5 -1 -9 -9 -9 -8 0 -12
4 -9 9 3 4 7 8 9 8 2 0 6 -4 9 -8z m4770 -2742 c-6 -6 -10 -3 -10 10 0 13 4
16 10 10 7 -7 7 -13 0 -20z m-3259 -20 c3 -5 1 -10 -4 -10 -6 0 -11 5 -11 10
0 6 2 10 4 10 3 0 8 -4 11 -10z m6146 -803 c-10 -9 -11 -8 -5 6 3 10 9 15 12
12 3 -3 0 -11 -7 -18z m-5500 -674 c13 -16 12 -17 -3 -4 -17 13 -22 21 -14 21
2 0 10 -8 17 -17z"/>
<path d="M5115 8980 c-4 -6 -11 -7 -17 -4 -7 4 -8 2 -4 -5 6 -9 11 -9 22 0 14
11 18 19 10 19 -3 0 -8 -5 -11 -10z"/>
<path d="M1245 8300 c-3 -5 -1 -10 4 -10 6 0 11 5 11 10 0 6 -2 10 -4 10 -3 0
-8 -4 -11 -10z"/>
<path d="M3005 8020 c-3 -6 1 -7 9 -4 18 7 21 14 7 14 -6 0 -13 -4 -16 -10z"/>
<path d="M9625 7321 c-3 -5 -2 -12 3 -15 5 -3 9 1 9 9 0 17 -3 19 -12 6z"/>
<path d="M2865 4310 c-3 -6 1 -7 9 -4 18 7 21 14 7 14 -6 0 -13 -4 -16 -10z"/>
<path d="M9676 4022 c-3 -5 1 -9 9 -9 8 0 12 4 9 9 -3 4 -7 8 -9 8 -2 0 -6 -4
-9 -8z"/>
<path d="M5245 3069 c-4 -6 -5 -12 -2 -15 2 -3 7 2 10 11 7 17 1 20 -8 4z"/>
<path d="M2766 2287 c3 -10 9 -15 12 -12 3 3 0 11 -7 18 -10 9 -11 8 -5 -6z"/>
<path d="M6771 1644 c0 -11 3 -14 6 -6 3 7 2 16 -1 19 -3 4 -6 -2 -5 -13z"/>
</g>
</svg>
